<?xml version="1.0" encoding="UTF-8"?><svg id="Layer_2" xmlns="http://www.w3.org/2000/svg" viewBox="0 0 833.45 715.42"><defs><style>.cls-1{letter-spacing:0em;}.cls-2{fill:#fff;font-family:'Goodland_473.000wght_1ital', Goodland;font-size:121.24px;font-variation-settings:'wdth' 100, 'wght' 473, 'slnt' 0;}.cls-3{fill:#020202;}.cls-4{fill:#fefefe;}.cls-5{letter-spacing:-.08em;}.cls-6{letter-spacing:-.02em;}.cls-7{letter-spacing:-.02em;}.cls-8{letter-spacing:-.02em;}.cls-9{letter-spacing:-.02em;}.cls-10{letter-spacing:-.02em;}</style></defs><g id="Layer_1-2"><text class="cls-2" transform="translate(65.28 691.17) scale(1.08 1)"><tspan class="cls-9" x="0" y="0">3</tspan><tspan class="cls-10" x="58.5" y="0">1</tspan><tspan class="cls-8" x="108.52" y="0">9</tspan><tspan class="cls-6" x="166.35" y="0">-</tspan><tspan class="cls-9" x="210.11" y="0">46</tspan><tspan class="cls-5" x="327.11" y="0">1</tspan><tspan class="cls-7" x="369.93" y="0">-632</tspan><tspan class="cls-1" x="587.3" y="0">9</tspan></text><path class="cls-4" d="M624.6,471.19l-116.15.35-396.05.66c-6.25.01-11.21-2.73-10.77-9.32.3-4.65-1.68-7.13-5.47-9.96-7.19-5.38-7.09-16.45-1.36-23.35,4.02-4.84,5.83-10.52,1.95-16.24-6.59-9.74-1.41-18.31-4.6-21.65-11.66-12.19,2.1-24.4-3.08-28.33-5.81-4.41-8.93-10.45-6.23-18.13.97-2.76,1.55-9.13-2.05-10.48-8.16-3.07-13.85-7.8-15.79-16.59-2.71-7.54-2.02-15.64,3.07-22.38,2.31-4.68-3.81-9.59-2.95-20.31-10.18-8.02-7.41-14.34-8.4-24.89-8.04-2.14-13.26-9.21-13.58-17.36-.22-5.53-2.89-7.94-7.18-11.15-5.74-4.29-5.96-13.37-3.73-19.93.98-2.88.49-5.63-1.58-7.27-8.74-6.91-9.39-17.42-4.27-26.57,1.78-3.18-3.33-8.2-6.72-7.39-5.69-1.62-8.95-5.93-9.71-11.72-5.6-3.06-9.6-8-9.8-13.72-.91-6.53,2.26-11.95,7.53-16.05l.99-7.84c5.4-10.48.78-17.29,7.98-25.17,4.7-5.15-.57-12.45,7.78-20.44.68-.65,1.09-3.55.64-4.23-1.75-2.67-10.18-2.06-14.17-10.11-2.54-5.12-2.66-10.73.68-15.09,8.19-10.7-3.88-13.32-4.29-25.38C7.09,4.92,11.91-.02,18.29,0l156.26.6,131.15.93,390.18.77c7.61.02,10.43,9.86,8.16,15.55-2.21,5.54-2.96,9.72-1.11,15.45,2.7,8.4,12.98,6.04,16.35,17.47,3.82,12.96-12.68,19.07-11.14,31.33,1.98,15.82,8.16,47.24,20.98,50.91l22.57,6.45c8.11,2.53,13.48,9.08,13.08,17.87,5.68,4.06,8.05,10.02,7.96,17.06,16.2,6.8,23.58,22.39,28.51,38.43,16.7,9.7,32.25,13.98,32.23,34.24-.01,11.25-.57,22.04-3.52,32.82-1.89,6.87-7.38,11-12.96,14.99l-3.4,2.43c-.98.7-.42,4.13-.13,5.37,4.2,11.44-2.49,23.14-14.59,25.12-2.67.6-8.15,1.11-10.11,2.65-24.88,19.65-43.83,7.33-62.55,20.81.38,6,.76,11.98-4.46,16.87,7.1,10.83,21.57,14.69,20.83,31.17-.65,14.47-7.23,28.38-18.39,38.06,1.4,13.06-6.1,24.33-17.92,28.92l-20.17,7.83c-6.42,2.49,1.95,9.56.99,24.84-.52,8.22-5.69,14.19-12.51,16.24-7.66,2.3-15.03-.83-20.31-7.52l-7.95-14.66-21.71-21.82ZM673.11,496.71l-3.57-14.81c-2.35-9.74,2.61-18.09,11.81-21.68l19.99-7.8c5.85-2.28,8.47-8.36,7.9-14.23-.74-7.62,4.63-11.25,9.54-15.62s6.64-12.19,8.47-18.36c4.1-13.86-11.26-14.91-18.75-29.34-2.32-6.48-1.33-12.53,3.4-17.59-2.51-8.34.45-15.68,7.74-19.85,8.92-5.76,19.68-8.22,30.5-8.5,11.84-.31,21.46-4.2,30.82-11.13,7.39-5.46,21.8-2.65,18.53-10.83-3.82-9.55-.65-19.38,8.79-23.9,1.84-.88,5.25-3.66,6.73-5.29,3.23-11.78,4.8-24.03,2.82-36.2-9.58-12.18-28.56-13.42-31.27-24.81-2.49-10.45-7.1-20.49-16.49-26.58l-9.14-5.93c-3.36-2.18-2.34-9.24-3.39-12.52-10.91-9.1-3.46-16.2-11.73-18.27l-17.6-4.42c-24.6-6.17-32.79-42.75-34.61-66.93-.8-10.64,3.6-19.52,11.46-26.81-5.54-3.42-10.84-6.46-13.6-11.17-4.8-8.2-5.77-17.33-2.54-26.21l-231.35-.24-192.33-.93-122.12-1.07-119.5-.36c8.06,8.5,7.98,19.82-.24,29.23,8.04,2.21,13.08,7.08,15.02,13.16,2.5,7.83-.08,13.86-5.21,19.45-.09,4.51.04,10.74-2.39,14.32l-5.05,7.47c1.39,6.37-.11,11.4-3.43,16.6,1.46,6.96-2.38,12.88-7.59,17.46l9.73,13.72c6.84,1.95,11.88,5.84,14.54,11.48,6.46,13.66-5.5,20.85.77,25.21,7.48,5.2,9.22,14.08,6.11,22.54-3.31,9.01,11.27,7.49,10.99,23.12-.1,5.36,2.78,7.49,7.11,9.4,6.54,2.88,8.82,10.82,7.36,17.68-.37,1.73.49,4.95,1.22,6.3,6.77,4.7,8.63,11.77,7.36,19.49,3.77,6.7,4.63,13.92.51,20.55-4.09,6.44-3.12,10.29,1.27,16.92,14.24,4.06,20.11,17.38,14.61,31.09,10.38,6.76,8.78,16.75,5.91,28.64,2.06,5.26,6.14,10.53,5.55,16.71-.3,3.16.09,6.62.72,9.66,6.75,9.84,6.27,22.38-1.71,31.26l-1.66,5.07c6.34,3.33,9.5,8.5,11.14,15.12l181.4-.34,326.33-.65c5.68-.01,10.03,4.47,13.51,7.61l12.2,11.01c14.93,13.48,11.97,22.64,19.71,26.58,1.21.62,4.08-2.92,3.71-4.45Z"/><path class="cls-3" d="M817.84,241.58c-9.58-12.18-28.56-13.42-31.27-24.81-2.49-10.45-7.1-20.49-16.49-26.58l-9.14-5.93c-3.36-2.18-2.34-9.24-3.39-12.52-10.91-9.1-3.46-16.2-11.73-18.27l-17.6-4.42c-24.6-6.17-32.79-42.75-34.61-66.93-.8-10.64,3.6-19.52,11.46-26.81-5.54-3.42-10.84-6.46-13.6-11.17-4.8-8.2-5.77-17.33-2.54-26.21l-231.35-.24-192.33-.93-122.12-1.07-119.5-.36c8.06,8.5,7.98,19.82-.24,29.23,8.04,2.21,13.08,7.08,15.02,13.16,2.5,7.83-.08,13.86-5.21,19.45-.09,4.51.04,10.74-2.39,14.32l-5.05,7.47c1.39,6.37-.11,11.4-3.43,16.6,1.46,6.96-2.38,12.88-7.59,17.46l9.73,13.72c6.84,1.95,11.88,5.84,14.54,11.48,6.46,13.66-5.5,20.85.77,25.21,7.48,5.2,9.22,14.08,6.11,22.54-3.31,9.01,11.27,7.49,10.99,23.12-.1,5.36,2.78,7.49,7.11,9.4,6.54,2.88,8.82,10.82,7.36,17.68-.37,1.73.49,4.95,1.22,6.3,6.77,4.7,8.63,11.77,7.36,19.49,3.77,6.7,4.63,13.92.51,20.55-4.09,6.44-3.12,10.29,1.27,16.92,14.24,4.06,20.11,17.38,14.61,31.09,10.38,6.76,8.78,16.75,5.91,28.64,2.06,5.26,6.14,10.53,5.55,16.71-.3,3.16.09,6.62.72,9.66,6.75,9.84,6.27,22.38-1.71,31.26l-1.66,5.07c6.34,3.33,9.5,8.5,11.14,15.12l181.4-.34,326.33-.65c5.68-.01,10.03,4.47,13.51,7.61l12.2,11.01c14.93,13.48,11.97,22.64,19.71,26.58,1.21.62,4.08-2.92,3.71-4.45l-3.57-14.81c-2.35-9.74,2.61-18.09,11.81-21.68l19.99-7.8c5.85-2.28,8.47-8.36,7.9-14.23-.74-7.62,4.63-11.25,9.54-15.62,4.94-4.41,6.64-12.19,8.47-18.36,4.1-13.86-11.26-14.91-18.75-29.34-2.32-6.48-1.33-12.53,3.4-17.59-2.51-8.34.45-15.68,7.74-19.85,8.92-5.76,19.68-8.22,30.5-8.5,11.84-.31,21.46-4.2,30.82-11.13,7.39-5.46,21.8-2.65,18.53-10.83-3.82-9.55-.65-19.38,8.79-23.9,1.84-.88,5.25-3.66,6.73-5.29,3.23-11.78,4.8-24.03,2.82-36.2Z"/><path class="cls-4" d="M274.53,254.85c-4.76,0-8.75-1.54-11.94-4.63-3.2-3.09-4.8-6.89-4.8-11.42v-21.4h22.32v12.35c0,1.78.59,3.23,1.79,4.32,1.19,1.1,2.75,1.65,4.69,1.65h25c1.93,0,3.5-.55,4.69-1.65,1.19-1.1,1.79-2.54,1.79-4.32v-33.54c0-1.78-.6-3.22-1.79-4.32-1.19-1.1-2.76-1.65-4.69-1.65h-24.78v-18.93h24.78c1.93,0,3.5-.55,4.69-1.65,1.19-1.1,1.79-2.54,1.79-4.32v-29.43c0-1.78-.6-3.22-1.79-4.32-1.19-1.1-2.76-1.65-4.69-1.65h-25c-1.94,0-3.5.55-4.69,1.65-1.19,1.1-1.79,2.54-1.79,4.32v12.35h-22.32v-20.58c0-5.07,1.6-9.16,4.8-12.24,3.2-3.09,7.4-4.63,12.61-4.63h48.22c5.06,0,9.15,1.44,12.28,4.32s4.69,6.79,4.69,11.73v39.51c0,4.39-1.38,8.06-4.13,11.01-2.76,2.95-6.51,4.36-11.27,4.22v-1.65c4.76,0,8.52,1.48,11.27,4.42,2.75,2.95,4.13,6.69,4.13,11.21v43.01c0,4.39-1.71,8.2-5.13,11.42-3.43,3.22-7.67,4.84-12.72,4.84h-47.99Z"/><path class="cls-4" d="M402.33,110.81v15.02l-39.07,31.48v-27.16l24.56-19.34h14.51ZM363.27,254.85v-19.14h71.43v19.14h-71.43ZM388.27,254.85V110.81h22.55v144.04h-22.55Z"/><path class="cls-4" d="M523.23,110.81c5.06,0,9.15,1.44,12.28,4.32s4.69,6.79,4.69,11.73v111.73c0,4.39-1.71,8.2-5.13,11.42-3.43,3.22-7.67,4.84-12.72,4.84h-47.99c-4.76,0-8.75-1.54-11.94-4.63-3.2-3.09-4.8-6.89-4.8-11.42v-21.4h22.32v12.35c0,1.78.59,3.23,1.79,4.32,1.19,1.1,2.75,1.65,4.69,1.65h25c1.93,0,3.5-.55,4.69-1.65,1.19-1.1,1.79-2.54,1.79-4.32v-36.42c-2.98,2.33-5.51,3.91-7.59,4.73-2.08.82-4.61,1.23-7.59,1.23h-27.23c-5.51,0-9.86-1.51-13.06-4.53-3.2-3.02-4.8-7-4.8-11.93v-55.15c0-5.07,1.6-9.16,4.8-12.24,3.2-3.09,7.4-4.63,12.61-4.63h48.22ZM486.4,129.95c-1.94,0-3.5.55-4.69,1.65-1.19,1.1-1.79,2.54-1.79,4.32v38.27c0,1.92.59,3.4,1.79,4.42,1.19,1.03,2.83,1.54,4.91,1.54h16.97c1.49,0,3.05-.31,4.69-.93,1.64-.62,2.98-1.41,4.02-2.37l2.01-1.65c1.19-1.23,2.08-2.33,2.68-3.29.59-.96.89-1.99.89-3.09v-32.92c0-1.78-.6-3.22-1.79-4.32-1.19-1.1-2.76-1.65-4.69-1.65h-25Z"/><path class="cls-4" d="M271.82,274.94v65.44c0,17.52-10.77,24.75-28.05,24.75-15.95,0-25.79-6.25-26.59-22.43l15.02-2.21c.8,7.72,2.53,12.75,11.96,12.75,7.18,0,12.1-2.33,12.1-12.5v-65.81h15.55Z"/><path class="cls-4" d="M357.93,331.55v-56.62h15.55v58.09c0,22.18-14.22,32.11-37.22,32.11-25.39,0-36.03-10.78-36.03-32.47v-57.72h15.55v56.25c0,15.44,6.38,21.93,21.27,21.93s20.87-5.76,20.87-21.57Z"/><path class="cls-4" d="M416.89,293.93v69.73h-14.36v-88.72h19.54l42.14,69.36v-69.36h14.22v88.72h-18.34l-43.2-69.73Z"/><path class="cls-4" d="M564.46,274.94h16.88l-36.69,37.62,37.62,51.1h-18.21l-30.31-40.07-10.1,10.05v30.02h-15.55v-88.72h15.55v41.42l40.81-41.42Z"/></g></svg>